HIERARCHY
ROOT hip
{
  OFFSET 0 0 0
  CHANNELS 6 Xposition Yposition Zposition Zrotation Yrotation Xrotation
  JOINT abdomen
  {
    OFFSET 0 20.6881 -0.73152
    CHANNELS 3 Zrotation Xrotation Yrotation
    JOINT chest
    {
      OFFSET 0 11.7043 -0.48768
      CHANNELS 3 Zrotation Xrotation Yrotation
      JOINT neck
      {
        OFFSET 0 22.1894 -2.19456
        CHANNELS 3 Zrotation Xrotation Yrotation
        JOINT head
        {
          OFFSET -0.24384 7.07133 1.2192
          CHANNELS 3 Zrotation Xrotation Yrotation
          JOINT leftEye
          {
            OFFSET 4.14528 8.04674 8.04672
            CHANNELS 3 Zrotation Xrotation Yrotation
            End Site
            {
              OFFSET 1 0 0
            }
          }
          JOINT rightEye
          {
            OFFSET -3.6576 8.04674 8.04672
            CHANNELS 3 Zrotation Xrotation Yrotation
            End Site
            {
              OFFSET 1 0 0
            }
          }
        }
      }
      JOINT rCollar
      {
        OFFSET -2.68224 19.2634 -4.8768
        CHANNELS 3 Zrotation Xrotation Yrotation
        JOINT rShldr
        {
          OFFSET -8.77824 -1.95073 1.46304
          CHANNELS 3 Zrotation Xrotation Yrotation
          JOINT rForeArm
          {
            OFFSET -28.1742 -1.7115 0.48768
            CHANNELS 3 Zrotation Xrotation Yrotation
            JOINT rHand
            {
              OFFSET -22.5879 0.773209 7.07136
              CHANNELS 3 Zrotation Xrotation Yrotation
              JOINT rThumb1
              {
                OFFSET -1.2192 -0.487915 3.41376
                CHANNELS 3 Zrotation Xrotation Yrotation
                JOINT rThumb2
                {
                  OFFSET -3.37035 -0.52449 3.41376
                  CHANNELS 3 Zrotation Xrotation Yrotation
                  End Site
                  {
                    OFFSET -1.78271 -1.18214 1.43049
                  }
                }
              }
              JOINT rIndex1
              {
                OFFSET -7.75947 0.938293 5.60832
                CHANNELS 3 Zrotation Xrotation Yrotation
                JOINT rIndex2
                {
                  OFFSET -2.54057 -0.884171 1.56538
                  CHANNELS 3 Zrotation Xrotation Yrotation
                  End Site
                  {
                    OFFSET -1.62519 -0.234802 1.16502
                  }
                }
              }
              JOINT rMid1
              {
                OFFSET -8.24714 1.18213 3.41376
                CHANNELS 3 Zrotation Xrotation Yrotation
                JOINT rMid2
                {
                  OFFSET -3.10165 -0.590103 1.0647
                  CHANNELS 3 Zrotation Xrotation Yrotation
                  End Site
                  {
                    OFFSET -2.48547 -0.328903 0.83742
                  }
                }
              }
              JOINT rRing1
              {
                OFFSET -8.82822 0.546677 1.51678
                CHANNELS 3 Zrotation Xrotation Yrotation
                JOINT rRing2
                {
                  OFFSET -2.60934 -0.819778 -0.0198488
                  CHANNELS 3 Zrotation Xrotation Yrotation
                  End Site
                  {
                    OFFSET -2.33842 -0.294052 0.168128
                  }
                }
              }
              JOINT rPinky1
              {
                OFFSET -8.27202 -0.0477905 -0.4584
                CHANNELS 3 Zrotation Xrotation Yrotation
                JOINT rPinky2
                {
                  OFFSET -1.82734 -0.647385 -0.700984
                  CHANNELS 3 Zrotation Xrotation Yrotation
                  End Site
                  {
                    OFFSET -1.69225 -0.51767 -0.607171
                  }
                }
              }
            }
          }
        }
      }
      JOINT lCollar
      {
        OFFSET 2.68224 19.2634 -4.8768
        CHANNELS 3 Zrotation Xrotation Yrotation
        JOINT lShldr
        {
          OFFSET 8.77824 -1.95073 1.46304
          CHANNELS 3 Zrotation Xrotation Yrotation
          JOINT lForeArm
          {
            OFFSET 28.1742 -1.7115 0.48768
            CHANNELS 3 Zrotation Xrotation Yrotation
            JOINT lHand
            {
              OFFSET 22.5879 0.773209 7.07136
              CHANNELS 3 Zrotation Xrotation Yrotation
              JOINT lThumb1
              {
                OFFSET 1.2192 -0.487915 3.41376
                CHANNELS 3 Zrotation Xrotation Yrotation
                JOINT lThumb2
                {
                  OFFSET 3.37035 -0.52449 3.41376
                  CHANNELS 3 Zrotation Xrotation Yrotation
                  End Site
                  {
                    OFFSET 1.78271 -1.18214 1.43049
                  }
                }
              }
              JOINT lIndex1
              {
                OFFSET 7.75947 0.938293 5.60832
                CHANNELS 3 Zrotation Xrotation Yrotation
                JOINT lIndex2
                {
                  OFFSET 2.54057 -0.884171 1.56538
                  CHANNELS 3 Zrotation Xrotation Yrotation
                  End Site
                  {
                    OFFSET 1.62519 -0.234802 1.16502
                  }
                }
              }
              JOINT lMid1
              {
                OFFSET 8.24714 1.18213 3.41376
                CHANNELS 3 Zrotation Xrotation Yrotation
                JOINT lMid2
                {
                  OFFSET 3.10165 -0.590103 1.0647
                  CHANNELS 3 Zrotation Xrotation Yrotation
                  End Site
                  {
                    OFFSET 2.48547 -0.328903 0.83742
                  }
                }
              }
              JOINT lRing1
              {
                OFFSET 8.82822 0.546677 1.51678
                CHANNELS 3 Zrotation Xrotation Yrotation
                JOINT lRing2
                {
                  OFFSET 2.60934 -0.819778 -0.0198488
                  CHANNELS 3 Zrotation Xrotation Yrotation
                  End Site
                  {
                    OFFSET 2.33842 -0.294052 0.168128
                  }
                }
              }
              JOINT lPinky1
              {
                OFFSET 8.27202 -0.0477905 -0.4584
                CHANNELS 3 Zrotation Xrotation Yrotation
                JOINT lPinky2
                {
                  OFFSET 1.82734 -0.647385 -0.700984
                  CHANNELS 3 Zrotation Xrotation Yrotation
                  End Site
                  {
                    OFFSET 1.69225 -0.51767 -0.607171
                  }
                }
              }
            }
          }
        }
      }
    }
  }
  JOINT rButtock
  {
    OFFSET -8.77824 4.35084 1.2192
    CHANNELS 3 Zrotation Xrotation Yrotation
    JOINT rThigh
    {
      OFFSET 0 -1.70687 -2.19456
      CHANNELS 3 Zrotation Xrotation Yrotation
      JOINT rShin
      {
        OFFSET 0 -36.8199 0.73152
        CHANNELS 3 Zrotation Xrotation Yrotation
        JOINT rFoot
        {
          OFFSET 0.73152 -45.1104 -5.12064
          CHANNELS 3 Zrotation Xrotation Yrotation
          End Site
          {
            OFFSET -1.1221 -3.69964 12.103
          }
        }
      }
    }
  }
  JOINT lButtock
  {
    OFFSET 8.77824 4.35084 1.2192
    CHANNELS 3 Zrotation Xrotation Yrotation
    JOINT lThigh
    {
      OFFSET 0 -1.70687 -2.19456
      CHANNELS 3 Zrotation Xrotation Yrotation
      JOINT lShin
      {
        OFFSET 0 -36.8199 0.73152
        CHANNELS 3 Zrotation Xrotation Yrotation
        JOINT lFoot
        {
          OFFSET -0.73152 -45.1104 -5.12064
          CHANNELS 3 Zrotation Xrotation Yrotation
          End Site
          {
            OFFSET 1.1221 -3.69964 12.103
          }
        }
      }
    }
  }
}
MOTION
Frames:	8
Frame Time:	0.00833333
-13.5089 85.0159 131.838 0.0 0.0 0.0 0.0404822 0.000270401 0.00114434 0.0111571 0.000489935 0.00193268 8.58923e-16 0.0 -3.88252e-18 2.5842e-15 3.18055e-15 -1.2424e-17 -0.0 0.0 0.0 -0.0 0.0 0.0 4.9564e-16 -2.13538e-18 1.49089e-16 1.11093e-14 -1.67725e-16 7.95139e-16 1.56493e-13 -4.69132e-14 1.90833e-14 1.78476e-12 4.34593e-14 -3.18055e-14 4.20954e-12 -4.15265e-15 -2.22639e-14 7.25962e-12 -6.36111e-15 -3.89618e-14 4.21662e-12 7.95139e-16 -3.18055e-14 7.73091 5.47488 0.417314 4.20971e-12 -3.97569e-15 -1.59028e-14 2.90554 0.965183 0.102902 4.21942e-12 -3.97569e-15 -2.06736e-14 10.2786 0.731801 0.0259123 4.20867e-12 -4.77083e-15 -1.27222e-14 2.22167 -0.733487 -0.20892 3.9892e-16 -1.94126e-18 -1.49089e-16 7.17915e-15 -4.72114e-16 -7.95139e-16 1.51722e-13 4.49253e-14 0.0 1.7876e-12 -5.69518e-14 -6.36111e-15 4.20923e-12 -2.00439e-14 -2.22639e-14 7.27353e-12 -2.8625e-14 -3.65764e-14 4.20191e-12 -1.82882e-14 -1.27222e-14 -7.73091 5.47488 -0.417314 4.20817e-12 -1.95803e-14 -2.22639e-14 -2.90554 0.965183 -0.102902 4.19988e-12 -1.91827e-14 -2.14687e-14 -10.2786 0.731801 -0.0259123 4.21543e-12 -2.10712e-14 -3.18055e-14 -2.22167 -0.733487 0.20892 -2.03217e-16 0.0 -3.88251e-19 0.554641 -3.16496 -0.0436851 -0.00574521 0.179607 -0.0505577 -0.523879 2.98421 0.121168 2.03217e-16 0.0 3.88251e-19 -0.493034 -3.01454 0.0399653 0.00619329 -0.092879 0.0545627 0.523457 3.10627 -0.123626
-12.5175 83.6507 125.304 -177.459 8.8547 -173.458 0.133321 0.846328 0.573112 -0.165561 0.250482 0.162011 -2.09693 1.49666 -3.14647 5.211 0.493705 -5.32687 -0.0 0.0 0.0 -0.0 0.0 0.0 2.55107e-14 4.0414e-14 -1.38185e-13 20.063 5.49698 2.09157 -6.69806 -3.77904 9.54006 0.0130997 2.54067 0.355804 2.45098e-10 -3.10682e-10 -9.40833e-11 4.22354e-10 -5.35375e-10 -1.65336e-10 2.45104e-10 -3.1068e-10 -9.40938e-11 7.73091 5.47488 0.417314 2.45098e-10 -3.10684e-10 -9.40795e-11 2.90554 0.965183 0.102902 2.45106e-10 -3.10684e-10 -9.40838e-11 10.2786 0.731801 0.0259123 2.45097e-10 -3.10683e-10 -9.40774e-11 2.22167 -0.733487 -0.20892 2.5395e-14 4.04134e-14 -1.38439e-13 -21.2196 -7.56999 2.84094 1.72743 -0.572539 -2.88453 -0.530193 16.2805 -1.96853 -5.92133e-10 6.48292e-11 -1.16079e-10 -1.02236e-09 1.07045e-10 -1.69753e-10 -5.92141e-10 6.48311e-11 -1.16069e-10 -7.73091 5.47488 -0.417314 -5.92134e-10 6.48285e-11 -1.16079e-10 -2.90554 0.965183 -0.102902 -5.92142e-10 6.48299e-11 -1.16078e-10 -10.2786 0.731801 -0.0259123 -5.92126e-10 6.48284e-11 -1.16089e-10 -2.22167 -0.733487 0.20892 -2.03217e-16 0.0 -3.88251e-19 1.13242 -3.24763 2.15432 -0.01033 6.26007 0.0403085 -0.562949 -1.03658 -1.43049 2.03217e-16 0.0 3.88251e-19 3.09125 -9.56521 -1.34445 0.0190146 2.83184 0.0660762 0.397529 3.39147 3.57928
-12.5314 83.6957 124.428 -177.411 9.3853 -173.305 0.230061 1.73651 1.18158 -0.355003 0.516485 0.332534 -4.13305 3.05273 -6.47798 10.8142 0.99676 -10.9557 -0.0 0.0 0.0 -0.0 0.0 0.0 5.36873e-14 8.65701e-14 -3.00351e-13 40.84 11.2873 4.35302 -12.419 -7.41571 19.7432 -0.00753112 5.23606 0.735657 5.50278e-10 -7.3353e-10 -1.96737e-10 9.48437e-10 -1.2645e-09 -3.46148e-10 5.50282e-10 -7.33531e-10 -1.96749e-10 7.73091 5.47488 0.417314 5.50278e-10 -7.33533e-10 -1.96736e-10 2.90554 0.965183 0.102902 5.50284e-10 -7.33533e-10 -1.9674e-10 10.2786 0.731801 0.0259123 5.50276e-10 -7.3353e-10 -1.96735e-10 2.22167 -0.733487 -0.20892 5.35512e-14 8.65687e-14 -3.00556e-13 -42.8257 -15.4543 5.97744 3.49418 -1.17434 -5.94022 0.343029 33.3854 -4.65381 -1.25447e-09 1.38736e-10 -2.57115e-10 -2.16651e-09 2.29165e-10 -3.7899e-10 -1.25447e-09 1.38738e-10 -2.57105e-10 -7.73091 5.47488 -0.417314 -1.25447e-09 1.38734e-10 -2.57115e-10 -2.90554 0.965183 -0.102902 -1.25447e-09 1.38737e-10 -2.57113e-10 -10.2786 0.731801 -0.0259123 -1.25446e-09 1.38736e-10 -2.57124e-10 -2.22167 -0.733487 0.20892 -2.03217e-16 0.0 -3.88251e-19 1.76089 -3.37252 4.45732 -0.0362325 12.7018 0.14031 -0.842108 -5.28806 -3.08269 2.03217e-16 0.0 3.88251e-19 6.51148 -16.5045 -2.8913 0.0315893 6.0147 0.0762 0.231173 3.64085 7.58204
-12.5585 83.7478 123.551 -177.388 10.1453 -173.003 0.268288 2.53743 1.71854 -0.523187 0.750444 0.482204 -5.79885 4.43578 -9.46479 15.9045 1.43005 -15.9851 -0.0 0.0 0.0 -0.0 0.0 0.0 7.55409e-14 1.21246e-13 -4.14853e-13 58.9442 16.4011 6.5119 -16.4452 -10.0814 29.0475 -0.056078 7.62084 1.07587 7.26876e-10 -9.32039e-10 -2.82205e-10 1.25254e-09 -1.60611e-09 -4.95929e-10 7.26878e-10 -9.32042e-10 -2.82218e-10 7.73091 5.47488 0.417314 7.26876e-10 -9.32043e-10 -2.82207e-10 2.90554 0.965183 0.102902 7.26881e-10 -9.32043e-10 -2.8221e-10 10.2786 0.731801 0.0259123 7.26873e-10 -9.32039e-10 -2.82207e-10 2.22167 -0.733487 -0.20892 7.53871e-14 1.21244e-13 -4.15018e-13 -61.2591 -22.4773 9.1488 5.01001 -1.70021 -8.65701 3.20624 48.549 -8.58132 -1.78482e-09 1.94528e-10 -3.48192e-10 -3.08164e-09 3.21191e-10 -5.09186e-10 -1.78483e-09 1.9453e-10 -3.48182e-10 -7.73091 5.47488 -0.417314 -1.78482e-09 1.94525e-10 -3.48193e-10 -2.90554 0.965183 -0.102902 -1.78483e-09 1.94528e-10 -3.48191e-10 -10.2786 0.731801 -0.0259123 -1.78481e-09 1.94527e-10 -3.48202e-10 -2.22167 -0.733487 0.20892 -2.03217e-16 0.0 -3.88251e-19 2.30679 -3.39757 6.55137 -0.0797097 18.4208 0.233272 -1.2996 -9.05051 -4.59003 2.03217e-16 0.0 3.88251e-19 9.2413 -22.6143 -4.39565 0.0410596 8.68126 0.089891 0.0365289 3.90887 10.9918
-12.6307 83.7167 122.74 -177.466 10.6212 -172.714 0.196147 3.11618 2.07532 -0.635165 0.904319 0.579702 -6.8791 5.4368 -11.5665 19.5272 1.73627 -19.5118 -0.0 0.0 0.0 -0.0 0.0 0.0 8.15866e-14 1.27223e-13 -4.10192e-13 71.2468 19.9063 8.19165 -18.7397 -11.5047 35.7015 -0.105647 9.23028 1.30869 5.82019e-10 -5.69701e-10 -3.24709e-10 1.00171e-09 -9.78937e-10 -5.68133e-10 5.8202e-10 -5.69706e-10 -3.24722e-10 7.73091 5.47488 0.417314 5.82019e-10 -5.69706e-10 -3.24712e-10 2.90554 0.965183 0.102902 5.82023e-10 -5.69706e-10 -3.24715e-10 10.2786 0.731801 0.0259123 5.82015e-10 -5.69702e-10 -3.24712e-10 2.22167 -0.733487 -0.20892 8.14222e-14 1.2722e-13 -4.10341e-13 -73.417 -27.5495 11.8557 6.02097 -2.05308 -10.5232 7.71886 59.0887 -13.5752 -1.98522e-09 2.05031e-10 -3.14376e-10 -3.42426e-09 3.37982e-10 -4.41781e-10 -1.98523e-09 2.05033e-10 -3.14366e-10 -7.73091 5.47488 -0.417314 -1.98522e-09 2.05028e-10 -3.14376e-10 -2.90554 0.965183 -0.102902 -1.98522e-09 2.05031e-10 -3.14374e-10 -10.2786 0.731801 -0.0259123 -1.98521e-09 2.05031e-10 -3.14385e-10 -2.22167 -0.733487 0.20892 -2.03217e-16 0.0 -3.88251e-19 2.61701 -3.18559 8.12135 -0.122444 22.3331 0.297136 -1.73454 -11.6187 -5.67229 2.03217e-16 0.0 3.88251e-19 10.9994 -26.7001 -5.53007 0.0445376 10.057 0.1119 -0.16798 4.26524 12.9156
-12.6995 83.7635 121.903 -177.54 11.0155 -172.671 -0.0150546 3.36958 2.17285 -0.672085 0.941819 0.601813 -7.28001 5.96631 -12.4101 20.996 1.88919 -20.9252 -0.0 0.0 0.0 -0.0 0.0 0.0 6.09553e-14 9.03728e-14 -2.00829e-13 75.847 21.241 9.03325 -19.579 -11.9915 38.4494 -0.125956 9.75831 1.38587 -1.91895e-10 9.44814e-10 -3.1208e-10 -3.3551e-10 1.63904e-09 -5.38791e-10 -1.91894e-10 9.44808e-10 -3.12092e-10 7.73091 5.47488 0.417314 -1.91895e-10 9.44808e-10 -3.12085e-10 2.90554 0.965183 0.102902 -1.91892e-10 9.44808e-10 -3.12085e-10 10.2786 0.731801 0.0259123 -1.919e-10 9.44813e-10 -3.12083e-10 2.22167 -0.733487 -0.20892 6.07888e-14 9.03709e-14 -2.00999e-13 -77.6221 -30.0589 13.5349 6.37779 -2.17498 -11.1951 10.8444 63.4622 -16.8545 -1.72561e-09 1.44477e-10 -2.4533e-11 -2.96437e-09 2.36006e-10 4.16509e-11 -1.72562e-09 1.44477e-10 -2.45256e-11 -7.73091 5.47488 -0.417314 -1.72561e-09 1.44473e-10 -2.45321e-11 -2.90554 0.965183 -0.102902 -1.72562e-09 1.44476e-10 -2.45313e-11 -10.2786 0.731801 -0.0259123 -1.7256e-09 1.44477e-10 -2.45423e-11 -2.22167 -0.733487 0.20892 -2.03217e-16 0.0 -3.88251e-19 2.58468 -2.61877 8.96226 -0.142597 23.6474 0.306831 -1.92432 -12.5282 -6.112 2.03217e-16 0.0 3.88251e-19 11.8317 -27.9089 -5.9349 0.0404283 9.31482 0.153871 -0.351517 4.76424 12.7202
-12.7605 83.7076 120.94 -177.487 11.3391 -172.752 -0.321853 3.39148 2.08518 -0.654931 0.896402 0.570183 -7.23429 6.16881 -12.3501 20.9074 1.94339 -20.8285 -0.0 0.0 0.0 -0.0 0.0 0.0 2.14854e-14 2.30589e-14 1.52946e-13 75.0597 21.0449 9.2243 -19.5799 -12.0463 38.3722 -0.118875 9.51395 1.35038 -1.40661e-09 3.26484e-09 -2.59832e-10 -2.43398e-09 5.6488e-09 -4.36581e-10 -1.40661e-09 3.26483e-09 -2.59843e-10 7.73091 5.47488 0.417314 -1.40661e-09 3.26483e-09 -2.59837e-10 2.90554 0.965183 0.102902 -1.40661e-09 3.26483e-09 -2.59834e-10 10.2786 0.731801 0.0259123 -1.40662e-09 3.26483e-09 -2.59832e-10 2.22167 -0.733487 -0.20892 2.1323e-14 2.3058e-14 1.52729e-13 -76.4111 -30.7959 14.3189 6.27897 -2.13506 -11.0133 10.8911 63.6311 -16.9336 -1.13734e-09 3.35312e-11 4.4432e-10 -1.93129e-09 4.98379e-11 8.15607e-10 -1.13735e-09 3.35285e-11 4.44324e-10 -7.73091 5.47488 -0.417314 -1.13734e-09 3.35278e-11 4.44322e-10 -2.90554 0.965183 -0.102902 -1.13735e-09 3.35293e-11 4.44321e-10 -10.2786 0.731801 -0.0259123 -1.13733e-09 3.35309e-11 4.44311e-10 -2.22167 -0.733487 0.20892 -2.03217e-16 0.0 -3.88251e-19 2.30609 -1.80147 9.2836 -0.142265 23.1094 0.275817 -1.88868 -12.2597 -6.07748 2.03217e-16 0.0 3.88251e-19 12.0896 -27.0766 -5.76803 0.0349854 7.07455 0.209207 -0.479233 5.37316 11.0105
-12.8456 83.572 120.004 -177.489 11.4323 -172.818 -0.666065 3.34474 1.93304 -0.608312 0.824651 0.520771 -7.03051 6.19686 -11.9331 20.2248 1.97235 -20.1388 -0.0 0.0 0.0 -0.0 0.0 0.0 -1.82459e-14 -5.22063e-14 5.03886e-13 72.1362 20.2064 9.15728 -19.2593 -11.9442 37.1721 -0.101643 8.95538 1.26929 -2.51122e-09 5.31987e-09 -1.83708e-10 -4.34181e-09 9.20008e-09 -2.93921e-10 -2.51121e-09 5.31987e-09 -1.83718e-10 7.73091 5.47488 0.417314 -2.51122e-09 5.31987e-09 -1.83714e-10 2.90554 0.965183 0.102902 -2.51121e-09 5.31987e-09 -1.83709e-10 10.2786 0.731801 0.0259123 -2.51122e-09 5.31987e-09 -1.83706e-10 2.22167 -0.733487 -0.20892 -1.84e-14 -5.22064e-14 5.03618e-13 -73.1195 -30.8186 14.6341 5.99821 -2.03075 -10.4923 9.56635 62.168 -15.6006 -4.14514e-10 -8.5323e-11 8.54899e-10 -6.70542e-10 -1.48509e-10 1.48276e-09 -4.14525e-10 -8.5328e-11 8.54901e-10 -7.73091 5.47488 -0.417314 -4.14513e-10 -8.53259e-11 8.54903e-10 -2.90554 0.965183 -0.102902 -4.14524e-10 -8.53259e-11 8.54901e-10 -10.2786 0.731801 -0.0259123 -4.14507e-10 -8.53234e-11 8.5489e-10 -2.22167 -0.733487 0.20892 -2.03217e-16 0.0 -3.88251e-19 1.92925 -0.931009 9.39117 -0.134856 21.9401 0.236434 -1.76319 -11.5334 -5.84825 2.03217e-16 0.0 3.88251e-19 12.023 -25.5545 -5.41306 0.0332922 4.73253 0.255811 -0.535031 6.03309 8.75073
